<svg xmlns="http://www.w3.org/2000/svg" width="800" height="400" viewBox="0 0 800 400">
  <rect width="800" height="400" fill="#f8fafc" rx="16"/>
  <!-- Phone -->
  <rect x="200" y="60" width="120" height="240" rx="16" fill="#1e293b"/>
  <rect x="215" y="80" width="90" height="200" rx="8" fill="#0f172a"/>
  <text x="260" y="180" text-anchor="middle" font-family="monospace" font-size="14" fill="#22c55e">5G</text>
  <text x="260" y="210" text-anchor="middle" font-family="monospace" font-size="12" fill="#94a3b8">eSIM</text>
  <!-- Signal bars -->
  <rect x="225" y="120" width="8" height="12" rx="2" fill="#22c55e"/>
  <rect x="237" y="116" width="8" height="16" rx="2" fill="#22c55e"/>
  <rect x="249" y="112" width="8" height="20" rx="2" fill="#22c55e"/>
  <rect x="261" y="108" width="8" height="24" rx="2" fill="#22c55e"/>
  <!-- Provider cards -->
  <rect x="380" y="80" width="200" height="60" rx="10" fill="#fff" stroke="#e2e8f0"/>
  <text x="400" y="108" font-family="system-ui,sans-serif" font-size="14" font-weight="bold" fill="#1e293b">Saily</text>
  <text x="400" y="128" font-family="system-ui,sans-serif" font-size="12" fill="#22c55e">$4.49 · Bypasses firewall</text>
  <rect x="380" y="155" width="200" height="60" rx="10" fill="#fff" stroke="#e2e8f0"/>
  <text x="400" y="183" font-family="system-ui,sans-serif" font-size="14" font-weight="bold" fill="#1e293b">Airalo</text>
  <text x="400" y="203" font-family="system-ui,sans-serif" font-size="12" fill="#f59e0b">$4.00 · Needs VPN</text>
  <rect x="380" y="230" width="200" height="60" rx="10" fill="#fff" stroke="#e2e8f0"/>
  <text x="400" y="258" font-family="system-ui,sans-serif" font-size="14" font-weight="bold" fill="#1e293b">Holafly</text>
  <text x="400" y="278" font-family="system-ui,sans-serif" font-size="12" fill="#22c55e">$3.90/day · Unlimited</text>
  <!-- Title -->
  <text x="50" y="360" font-family="system-ui,sans-serif" font-size="18" font-weight="bold" fill="#64748b">Which eSIM actually works in China?</text>
</svg>
